<svg id="visual" viewBox="0 0 900 600" width="900" height="600" xmlns="http://www.w3.org/2000/svg" xmlns:xlink="http://www.w3.org/1999/xlink" version="1.1"><rect x="0" y="0" width="900" height="600" fill="#3d5a80"></rect><path d="M0 429L25 433.2C50 437.3 100 445.7 150 423.5C200 401.3 250 348.7 300 336.7C350 324.7 400 353.3 450 376.7C500 400 550 418 600 411.8C650 405.7 700 375.3 750 361.8C800 348.3 850 351.7 875 353.3L900 355L900 601L875 601C850 601 800 601 750 601C700 601 650 601 600 601C550 601 500 601 450 601C400 601 350 601 300 601C250 601 200 601 150 601C100 601 50 601 25 601L0 601Z" fill="#293241" stroke-linecap="round" stroke-linejoin="miter"></path></svg>