<svg id="visual" viewBox="0 0 900 600" width="900" height="600" xmlns="http://www.w3.org/2000/svg" xmlns:xlink="http://www.w3.org/1999/xlink" version="1.1"><rect x="0" y="0" width="900" height="600" fill="#002233"></rect><path d="M0 455L21.5 460.7C43 466.3 86 477.7 128.8 464.8C171.7 452 214.3 415 257.2 412.8C300 410.7 343 443.3 385.8 465C428.7 486.7 471.3 497.3 514.2 501C557 504.7 600 501.3 642.8 490.5C685.7 479.7 728.3 461.3 771.2 458.7C814 456 857 469 878.5 475.5L900 482L900 601L878.5 601C857 601 814 601 771.2 601C728.3 601 685.7 601 642.8 601C600 601 557 601 514.2 601C471.3 601 428.7 601 385.8 601C343 601 300 601 257.2 601C214.3 601 171.7 601 128.8 601C86 601 43 601 21.5 601L0 601Z" fill="#0066FF" stroke-linecap="round" stroke-linejoin="miter"></path></svg>